
            <svg id="trend-chart" width="660" height="400" title="Stack Overflow Trends Chart" version="1.1" xmlns="http://www.w3.org/2000/svg"><g></g><g class="chart-area" transform="translate(100, 20)"><g transform="translate(0,300)" fill="none" font-size="10" font-family="sans-serif" text-anchor="middle"><path class="domain" stroke="#000" d="M0.5,6V0.5H410.5V6"></path><g class="tick" opacity="1" transform="translate(14.215469717565323,0)"><line stroke="#000" y2="6" x1="0.5" x2="0.5"></line><text fill="#000" y="9" x="0.5" dy="0.71em" style="font-size: 12px;">2009</text></g><g class="tick" opacity="1" transform="translate(48.11895861652318,0)"><line stroke="#000" y2="6" x1="0.5" x2="0.5"></line><text fill="#000" y="9" x="0.5" dy="0.71em" style="font-size: 12px;">2010</text></g><g class="tick" opacity="1" transform="translate(82.02244751548103,0)"><line stroke="#000" y2="6" x1="0.5" x2="0.5"></line><text fill="#000" y="9" x="0.5" dy="0.71em" style="font-size: 12px;">2011</text></g><g class="tick" opacity="1" transform="translate(115.92593641443891,0)"><line stroke="#000" y2="6" x1="0.5" x2="0.5"></line><text fill="#000" y="9" x="0.5" dy="0.71em" style="font-size: 12px;">2012</text></g><g class="tick" opacity="1" transform="translate(149.92231158435283,0)"><line stroke="#000" y2="6" x1="0.5" x2="0.5"></line><text fill="#000" y="9" x="0.5" dy="0.71em" style="font-size: 12px;">2013</text></g><g class="tick" opacity="1" transform="translate(183.8258004833107,0)"><line stroke="#000" y2="6" x1="0.5" x2="0.5"></line><text fill="#000" y="9" x="0.5" dy="0.71em" style="font-size: 12px;">2014</text></g><g class="tick" opacity="1" transform="translate(217.72928938226852,0)"><line stroke="#000" y2="6" x1="0.5" x2="0.5"></line><text fill="#000" y="9" x="0.5" dy="0.71em" style="font-size: 12px;">2015</text></g><g class="tick" opacity="1" transform="translate(251.6327782812264,0)"><line stroke="#000" y2="6" x1="0.5" x2="0.5"></line><text fill="#000" y="9" x="0.5" dy="0.71em" style="font-size: 12px;">2016</text></g><g class="tick" opacity="1" transform="translate(285.62915345114027,0)"><line stroke="#000" y2="6" x1="0.5" x2="0.5"></line><text fill="#000" y="9" x="0.5" dy="0.71em" style="font-size: 12px;">2017</text></g><g class="tick" opacity="1" transform="translate(319.5326423500982,0)"><line stroke="#000" y2="6" x1="0.5" x2="0.5"></line><text fill="#000" y="9" x="0.5" dy="0.71em" style="font-size: 12px;">2018</text></g><g class="tick" opacity="1" transform="translate(353.436131249056,0)"><line stroke="#000" y2="6" x1="0.5" x2="0.5"></line><text fill="#000" y="9" x="0.5" dy="0.71em" style="font-size: 12px;">2019</text></g><g class="tick" opacity="1" transform="translate(387.33962014801386,0)"><line stroke="#000" y2="6" x1="0.5" x2="0.5"></line><text fill="#000" y="9" x="0.5" dy="0.71em" style="font-size: 12px;">2020</text></g></g><g class="grid-lines" transform="translate(0,300)" fill="none" font-size="10" font-family="sans-serif" text-anchor="middle"><path class="domain" stroke="#000" d="M0.5,-300V0.5H410.5V-300"></path><g class="tick" opacity="1" transform="translate(14.215469717565323,0)"><line stroke="#000" y2="-300" x1="0.5" x2="0.5" style="stroke: #ccc; fill: none;"></line></g><g class="tick" opacity="1" transform="translate(48.11895861652318,0)"><line stroke="#000" y2="-300" x1="0.5" x2="0.5" style="stroke: #ccc; fill: none;"></line></g><g class="tick" opacity="1" transform="translate(82.02244751548103,0)"><line stroke="#000" y2="-300" x1="0.5" x2="0.5" style="stroke: #ccc; fill: none;"></line></g><g class="tick" opacity="1" transform="translate(115.92593641443891,0)"><line stroke="#000" y2="-300" x1="0.5" x2="0.5" style="stroke: #ccc; fill: none;"></line></g><g class="tick" opacity="1" transform="translate(149.92231158435283,0)"><line stroke="#000" y2="-300" x1="0.5" x2="0.5" style="stroke: #ccc; fill: none;"></line></g><g class="tick" opacity="1" transform="translate(183.8258004833107,0)"><line stroke="#000" y2="-300" x1="0.5" x2="0.5" style="stroke: #ccc; fill: none;"></line></g><g class="tick" opacity="1" transform="translate(217.72928938226852,0)"><line stroke="#000" y2="-300" x1="0.5" x2="0.5" style="stroke: #ccc; fill: none;"></line></g><g class="tick" opacity="1" transform="translate(251.6327782812264,0)"><line stroke="#000" y2="-300" x1="0.5" x2="0.5" style="stroke: #ccc; fill: none;"></line></g><g class="tick" opacity="1" transform="translate(285.62915345114027,0)"><line stroke="#000" y2="-300" x1="0.5" x2="0.5" style="stroke: #ccc; fill: none;"></line></g><g class="tick" opacity="1" transform="translate(319.5326423500982,0)"><line stroke="#000" y2="-300" x1="0.5" x2="0.5" style="stroke: #ccc; fill: none;"></line></g><g class="tick" opacity="1" transform="translate(353.436131249056,0)"><line stroke="#000" y2="-300" x1="0.5" x2="0.5" style="stroke: #ccc; fill: none;"></line></g><g class="tick" opacity="1" transform="translate(387.33962014801386,0)"><line stroke="#000" y2="-300" x1="0.5" x2="0.5" style="stroke: #ccc; fill: none;"></line></g></g><text x="205" y="360" class="axis-label x-axis-label" style="text-anchor: middle; font-weight: bold;">Year</text><g fill="none" font-size="10" font-family="sans-serif" text-anchor="end"><path class="domain" stroke="#000" d="M-6,300.5H0.5V0.5H-6"></path><g class="tick" opacity="1" transform="translate(0,300)"><line stroke="#000" x2="-6" y1="0.5" y2="0.5"></line><text fill="#000" x="-9" y="0.5" dy="0.32em" style="font-size: 12px;">0.00%</text></g><g class="tick" opacity="1" transform="translate(0,262.5)"><line stroke="#000" x2="-6" y1="0.5" y2="0.5"></line><text fill="#000" x="-9" y="0.5" dy="0.32em" style="font-size: 12px;">2.00%</text></g><g class="tick" opacity="1" transform="translate(0,225)"><line stroke="#000" x2="-6" y1="0.5" y2="0.5"></line><text fill="#000" x="-9" y="0.5" dy="0.32em" style="font-size: 12px;">4.00%</text></g><g class="tick" opacity="1" transform="translate(0,187.5)"><line stroke="#000" x2="-6" y1="0.5" y2="0.5"></line><text fill="#000" x="-9" y="0.5" dy="0.32em" style="font-size: 12px;">6.00%</text></g><g class="tick" opacity="1" transform="translate(0,150)"><line stroke="#000" x2="-6" y1="0.5" y2="0.5"></line><text fill="#000" x="-9" y="0.5" dy="0.32em" style="font-size: 12px;">8.00%</text></g><g class="tick" opacity="1" transform="translate(0,112.5)"><line stroke="#000" x2="-6" y1="0.5" y2="0.5"></line><text fill="#000" x="-9" y="0.5" dy="0.32em" style="font-size: 12px;">10.00%</text></g><g class="tick" opacity="1" transform="translate(0,75)"><line stroke="#000" x2="-6" y1="0.5" y2="0.5"></line><text fill="#000" x="-9" y="0.5" dy="0.32em" style="font-size: 12px;">12.00%</text></g><g class="tick" opacity="1" transform="translate(0,37.49999999999994)"><line stroke="#000" x2="-6" y1="0.5" y2="0.5"></line><text fill="#000" x="-9" y="0.5" dy="0.32em" style="font-size: 12px;">14.00%</text></g><g class="tick" opacity="1" transform="translate(0,0)"><line stroke="#000" x2="-6" y1="0.5" y2="0.5"></line><text fill="#000" x="-9" y="0.5" dy="0.32em" style="font-size: 12px;">16.00%</text></g></g><g class="grid-lines" fill="none" font-size="10" font-family="sans-serif" text-anchor="end"><path class="domain" stroke="#000" d="M410,300.5H0.5V0.5H410"></path><g class="tick" opacity="1" transform="translate(0,300)"><line stroke="#000" x2="410" y1="0.5" y2="0.5" style="stroke: #ccc; fill: none;"></line></g><g class="tick" opacity="1" transform="translate(0,262.5)"><line stroke="#000" x2="410" y1="0.5" y2="0.5" style="stroke: #ccc; fill: none;"></line></g><g class="tick" opacity="1" transform="translate(0,225)"><line stroke="#000" x2="410" y1="0.5" y2="0.5" style="stroke: #ccc; fill: none;"></line></g><g class="tick" opacity="1" transform="translate(0,187.5)"><line stroke="#000" x2="410" y1="0.5" y2="0.5" style="stroke: #ccc; fill: none;"></line></g><g class="tick" opacity="1" transform="translate(0,150)"><line stroke="#000" x2="410" y1="0.5" y2="0.5" style="stroke: #ccc; fill: none;"></line></g><g class="tick" opacity="1" transform="translate(0,112.5)"><line stroke="#000" x2="410" y1="0.5" y2="0.5" style="stroke: #ccc; fill: none;"></line></g><g class="tick" opacity="1" transform="translate(0,75)"><line stroke="#000" x2="410" y1="0.5" y2="0.5" style="stroke: #ccc; fill: none;"></line></g><g class="tick" opacity="1" transform="translate(0,37.49999999999994)"><line stroke="#000" x2="410" y1="0.5" y2="0.5" style="stroke: #ccc; fill: none;"></line></g><g class="tick" opacity="1" transform="translate(0,0)"><line stroke="#000" x2="410" y1="0.5" y2="0.5" style="stroke: #ccc; fill: none;"></line></g></g><g class="lines"><path class="line" d="M2.879474399637517,226.93579696599375L5.666062528318985,233.78687162443126L8.549407189246338,232.54536771729374L11.335995317927805,230.89796088918752L14.215469717565323,224.79978389373747L17.09494411720284,232.2211383979875L19.695759703972207,229.2400473583125L22.571363842319894,231.8665720369125L25.35795197100136,226.71941629828126L28.237426370638875,230.07726072373126L31.02401449932034,232.23735408560623L33.90348889895786,234.166923551175L36.782963298595384,233.193277310925L39.56955142727685,226.0573640829375L42.4528960882042,223.37409562756875L45.239484216885664,220.46303958995625L48.11895861652318,218.101902691575L50.9984330161607,221.36403479199373L53.59924860293007,225.13729646401876L56.47485274127775,231.51373747938752L59.261440869959216,227.02443652700623L62.14091526959674,225.23421423157498L64.9275033982782,219.5002149968625L67.80697779791572,226.14426053446874L70.68645219755324,230.63202616528125L73.47304032623471,221.04765506808752L76.35638498716206,229.36782853432499L79.14297311584353,232.68925051306877L82.02244751548103,231.57192211055627L84.90192191511856,231.50467085893126L87.50273750188794,230.01517488433126L90.37834164023562,234.1256099480625L93.16492976891708,234.00791904973124L96.0444041685546,234.07706628086248L98.83099229723607,231.54154428238127L101.71046669687358,232.81039703904375L104.5899410965111,235.1785503946125L107.37652922519256,232.76848156783126L110.25987388611992,233.20185433629376L113.04646201480139,234.37943382204375L115.92593641443891,231.92216229256877L118.80541081407641,231.842437178625L121.49911267180184,229.10961982085627L124.37471681014954,228.22395291414375L127.16130493883098,228.64153065710627L130.0407793384685,224.1307062365625L132.82736746714997,224.00975585634376L135.7068418667875,221.88719404044377L138.58631626642503,225.20082986923126L141.37290439510647,222.94004606690623L144.25624905603382,218.60317298893125L147.0428371847153,219.87357676571247L149.92231158435283,221.3840982448125L152.80178598399033,217.17380202571877L155.4026015707597,217.30963368907499L158.2782057091074,212.861226110475L161.06479383778884,211.748137243125L163.94426823742637,209.717789588775L166.73085636610784,208.28244987579376L169.61033076574535,212.29668108313126L172.48980516538288,209.64168919246876L175.27639329406435,203.17641285369376L178.1597379549917,198.88258584166874L180.94632608367314,203.85283018869376L183.8258004833107,202.1671859379L186.7052748829482,200.95753671489376L189.30609046971756,196.69284962540624L192.18169460806524,196.0235491449375L194.96828273674672,201.29959250666252L197.84775713638422,197.00900336936252L200.63434526506572,194.64250500043124L203.51381966470322,195.223888800675L206.39329406434075,200.6825630694375L209.1798821930222,195.7189346034375L212.06322685394954,191.8859925471375L214.84981498263105,190.51632060843752L217.72928938226852,190.0774399614375L220.60876378190605,185.79938199939374L223.2095793686754,184.670360417925L226.0851835070231,186.175048228125L228.87177163570456,186.0259956349875L231.7512460353421,181.45676882484378L234.53783416402354,181.0087638234375L237.4173085636611,183.25334697943126L240.29678296329863,183.58791016464374L243.08337109198007,173.43638890685628L245.9667157529074,169.64184083443126L248.7533038815889,172.4852871837L251.6327782812264,171.1955888796L254.51225268086392,167.08967128886252L257.20595453858937,168.109804429875L260.081558676937,168.681106687875L262.8681468056185,169.02632081883752L265.747621205256,167.48780368018126L268.5342093339375,162.85039155136877L271.413683733575,165.6225938502375L274.2931581332125,163.77781886049377L277.07974626189394,154.19226837868126L279.9630909228213,146.72989295011877L282.7496790515028,147.80220803158124L285.62915345114027,147.08200634675626L288.5086278507778,140.31933976095002L291.1094434375472,139.19228212906876L293.98504757589484,134.29554204033747L296.77163570457634,135.9220667767875L299.65111010421384,129.85161880663125L302.43769823289534,121.88524130977498L305.31717263253285,124.34909429338126L308.1966470321704,119.69810348255626L310.98323516085185,111.3910580128125L313.8665798217792,109.7567078110875L316.65316795046067,105.29345567868751L319.5326423500982,108.08421779816251L322.4121167497357,97.93727636287502L325.01293233650506,103.80726702864374L327.88853647485274,102.1366130382375L330.67512460353424,101.34802374037503L333.5545990031717,93.6314593239L336.3411871318532,87.12592157383125L339.2206615314907,87.07132187013752L342.10013593112825,88.97722044862499L344.8867240598097,84.78348726176247L347.770068720737,70.99073378244375L350.5566568494185,73.30028651553752L353.436131249056,83.54756216563126L356.3156056486936,71.76453027526875L358.91642123546296,64.75233723549374L361.7920253738106,54.18324477136872L364.5786135024921,62.21126601682502L367.4580879021296,58.05291387847501L370.24467603081104,50.78003120126252L373.1241504304486,49.341324167456236L376.0036248300861,64.84957855588124L378.79021295876754,49.107714834824975L381.6735576196949,45.08563165976253L384.4601457483764,49.705972424943724L387.33962014801386,48.066784873481254L390.2190945476514,45.942475755449976L392.91279640537687,31.687606897368767L395.78840054372455,23.07930790126875L398.574988672406,11.406706192125L401.4544630720435,10.565012085300054L404.241051200725,9.809331584268762L407.12052560036244,16.715829480674984L410,20.328618827081243" data-legend="python" style="stroke: rgb(31, 119, 180); fill: none;"></path><path class="line" d="M2.879474399637517,146.861744194425L5.666062528318985,150.30639800581875L8.549407189246338,157.031996179575L11.335995317927805,169.78731405650626L14.215469717565323,162.9473082057L17.09494411720284,170.03672251550626L19.695759703972207,166.8047950273875L22.571363842319894,163.9105748758125L25.35795197100136,166.569187434L28.237426370638875,158.4817286418L31.02401449932034,167.91828793775625L33.90348889895786,173.24676325524376L36.782963298595384,170.28265851796874L39.56955142727685,169.65073682458126L42.4528960882042,164.19668134635L45.239484216885664,165.35278571238752L48.11895861652318,143.34730283947496L50.9984330161607,149.13357157306874L53.59924860293007,139.32700645535624L56.47485274127775,153.37302385455L59.261440869959216,148.3487917279875L62.14091526959674,154.80071482726873L64.9275033982782,159.77656865015626L67.80697779791572,160.46181060080625L70.68645219755324,154.45360265598748L73.47304032623471,151.31429652043127L76.35638498716206,148.37085949340627L79.14297311584353,146.05782293263127L82.02244751548103,145.85427135678754L84.90192191511856,143.81247500999999L87.50273750188794,141.7458580029L90.37834164023562,144.52227294193125L93.16492976891708,139.31303243611873L96.0444041685546,149.75262300556878L98.83099229723607,147.45731069846252L101.71046669687358,147.48275572006875L104.5899410965111,146.3941458243375L107.37652922519256,141.23730688689375L110.25987388611992,133.49567199015002L113.04646201480139,133.10731900355626L115.92593641443891,135.86359015010623L118.80541081407641,133.6537062190875L121.49911267180184,125.58270169867501L124.37471681014954,124.37434969640626L127.16130493883098,129.544184799225L130.0407793384685,140.2177160498625L132.82736746714997,137.462735595825L135.7068418667875,136.83043632495L138.58631626642503,134.50025791183126L141.37290439510647,130.32497924311875L144.25624905603382,126.71870232890626L147.0428371847153,126.97418164029375L149.92231158435283,135.988082278125L152.80178598399033,131.33998310821875L155.4026015707597,127.42644937987501L158.2782057091074,121.68247137345L161.06479383778884,127.19174378081249L163.94426823742637,134.1291007564875L166.73085636610784,138.06186372099376L169.61033076574535,133.37471206280625L172.48980516538288,115.26720205629377L175.27639329406435,108.73198347198749L178.1597379549917,99.85740260330624L180.94632608367314,101.47924528303125L183.8258004833107,113.89548630765L186.7052748829482,106.88812526909999L189.30609046971756,100.91860615993124L192.18169460806524,97.87539624733125L194.96828273674672,108.0961005150375L197.84775713638422,115.73242133559378L200.63434526506572,115.52666422515003L203.51381966470322,118.67434744905L206.39329406434075,110.37450762245626L209.1798821930222,104.87670947829375L212.06322685394954,98.12867918415003L214.84981498263105,101.31275857854376L217.72928938226852,112.01976677615625L220.60876378190605,112.16621715755625L223.2095793686754,103.54069549518749L226.0851835070231,103.00137417088123L228.87177163570456,111.55595652268127L231.7512460353421,120.57780436479376L234.53783416402354,119.40016326279377L237.4173085636611,122.250497897775L240.29678296329863,120.04132697998128L243.08337109198007,112.12424849699997L245.9667157529074,111.60509514660001L248.7533038815889,118.74203237694374L251.6327782812264,126.47226828309374L254.51225268086392,120.98221193092499L257.20595453858937,113.39079628901248L260.081558676937,112.73283831504378L262.8681468056185,129.79792215240002L265.747621205256,136.72074520333123L268.5342093339375,140.22315868494374L271.413683733575,141.96269810056876L274.2931581332125,138.01676174379372L277.07974626189394,134.3700830356875L279.9630909228213,130.93529313744375L282.7496790515028,138.52838232830626L285.62915345114027,143.84525104972502L288.5086278507778,142.4429534831625L291.1094434375472,137.3557646659125L293.98504757589484,131.09326824980624L296.77163570457634,134.1308008679063L299.65111010421384,144.83730033213752L302.43769823289534,150.98106495616875L305.31717263253285,153.35468969900626L308.1966470321704,151.00787421135L310.98323516085185,144.09319108880624L313.8665798217792,141.04319568223127L316.65316795046067,143.93611495845L319.5326423500982,154.19675940465L322.4121167497357,151.00587376342503L325.01293233650506,151.31253932375623L327.88853647485274,142.56719055148125L330.67512460353424,147.66519942995623L333.5545990031717,155.00809864674375L336.3411871318532,160.04633929079998L339.2206615314907,163.99501001176876L342.10013593112825,157.8543447045375L344.8867240598097,151.26693316959376L347.770068720737,150.60237123916875L350.5566568494185,148.80985856621248L353.436131249056,158.8403041825125L356.3156056486936,156.46013053057501L358.91642123546296,156.77221387186876L361.7920253738106,160.833900479025L364.5786135024921,159.5563400375625L367.4580879021296,164.69500003689376L370.24467603081104,162.9676038105375L373.1241504304486,173.2621584779625L376.0036248300861,164.5574286406125L378.79021295876754,161.10094261921876L381.6735576196949,168.51124438648128L384.4601457483764,170.6685910133625L387.33962014801386,172.04310002313753L390.2190945476514,171.70649736403126L392.91279640537687,166.86235383971248L395.78840054372455,169.464936268425L398.574988672406,176.9876542657125L401.4544630720435,181.65666055905L404.241051200725,181.88004274783125L407.12052560036244,181.54479961426875L410,180.04832463283122" data-legend="java" style="stroke: rgb(255, 127, 14); fill: none;"></path><path class="line" d="M2.879474399637517,213.72492630671252L5.666062528318985,205.87349397590626L8.549407189246338,213.4431709646625L11.335995317927805,201.75288316899375L14.215469717565323,205.612407042525L17.09494411720284,198.0089511131625L19.695759703972207,207.04084652953125L22.571363842319894,206.8488289567125L25.35795197100136,194.81045342514375L28.237426370638875,195.81846406395L31.02401449932034,197.80155642024374L33.90348889895786,192.60943279903125L36.782963298595384,199.44614209321875L39.56955142727685,193.63916409958125L42.4528960882042,190.59059452659375L45.239484216885664,184.7239648682625L48.11895861652318,189.9060980256L50.9984330161607,188.74654440024375L53.59924860293007,192.150014452275L56.47485274127775,186.7110503238375L59.261440869959216,182.87603593835627L62.14091526959674,182.62211632190628L64.9275033982782,179.80848741442503L67.80697779791572,181.54652852360624L70.68645219755324,176.73394254159376L73.47304032623471,178.291650907725L76.35638498716206,177.02966009960625L79.14297311584353,165.92045553084375L82.02244751548103,172.16551507539373L84.90192191511856,173.0734978735875L87.50273750188794,173.7250609483125L90.37834164023562,164.67023453488125L93.16492976891708,162.99144102708752L96.0444041685546,154.1348381679L98.83099229723607,148.54010056256251L101.71046669687358,143.8726727232L104.5899410965111,149.02602183046875L107.37652922519256,151.072000079025L110.25987388611992,150.277047764325L113.04646201480139,148.96049494726876L115.92593641443891,144.6681515052375L118.80541081407641,148.51011448531875L121.49911267180184,149.4562449444375L124.37471681014954,144.26199276320625L127.16130493883098,138.94411626678752L130.0407793384685,138.45097558546874L132.82736746714997,136.84019045467502L135.7068418667875,134.51578573963127L138.58631626642503,141.1139894407875L141.37290439510647,143.95924284223125L144.25624905603382,142.90145428659378L147.0428371847153,136.64772727273126L149.92231158435283,135.2599362096375L152.80178598399033,132.3711674316L155.4026015707597,134.10008653014373L158.2782057091074,131.63461931484375L161.06479383778884,129.963345751725L163.94426823742637,126.30835539995624L166.73085636610784,120.77728607728127L169.61033076574535,113.87284340919373L172.48980516538288,98.682090795L175.27639329406435,98.43246716626876L178.1597379549917,102.63996352226249L180.94632608367314,94.98113207548127L183.8258004833107,89.71499151005625L186.7052748829482,88.08221580853126L189.30609046971756,94.74630803463751L192.18169460806524,92.55683391980625L194.96828273674672,88.5916011093L197.84775713638422,87.988142801925L200.63434526506572,86.03121390541878L203.51381966470322,87.24151408925624L206.39329406434075,94.40794419221248L209.1798821930222,93.96307064495625L212.06322685394954,96.80102252066251L214.84981498263105,93.94146071536875L217.72928938226852,89.6239491367125L220.60876378190605,90.7438333899L223.2095793686754,95.8593118958625L226.0851835070231,92.06085991385626L228.87177163570456,74.82739805951252L231.7512460353421,72.74790894427497L234.53783416402354,68.29390382898748L237.4173085636611,69.59780924985L240.29678296329863,72.59575212845624L243.08337109198007,78.97326911889374L245.9667157529074,74.60442458428125L248.7533038815889,69.17905104519375L251.6327782812264,65.25715822691254L254.51225268086392,74.57463892995L257.20595453858937,74.253712741725L260.081558676937,74.78881660646249L262.8681468056185,70.452651193425L265.747621205256,72.833311505475L268.5342093339375,62.85124460445002L271.413683733575,64.04499050004372L274.2931581332125,74.5439819705625L277.07974626189394,79.43646564298126L279.9630909228213,78.53083646017501L282.7496790515028,69.12013851395625L285.62915345114027,70.83131555409375L288.5086278507778,71.231825316075L291.1094434375472,77.38784750160002L293.98504757589484,75.04819263526875L296.77163570457634,73.01523689238752L299.65111010421384,70.94677029440624L302.43769823289534,72.51687627798748L305.31717263253285,72.24329799791249L308.1966470321704,78.37479507179998L310.98323516085185,78.9109353446625L313.8665798217792,82.737066911325L316.65316795046067,79.01229224377505L319.5326423500982,76.51431890975627L322.4121167497357,87.08429804251875L325.01293233650506,90.25149721529999L327.88853647485274,90.79094206269374L330.67512460353424,95.85716089695L333.5545990031717,89.08821646899372L336.3411871318532,88.57106305556249L339.2206615314907,85.91520198330002L342.10013593112825,89.81367888361882L344.8867240598097,93.82965325381875L347.770068720737,94.69306073701873L350.5566568494185,94.63220373763124L353.436131249056,96.05218883544373L356.3156056486936,96.04599452349373L358.91642123546296,95.21513792653127L361.7920253738106,99.59443630081876L364.5786135024921,97.23508802199373L367.4580879021296,92.5950450417375L370.24467603081104,96.06333189498753L373.1241504304486,88.27098968105625L376.0036248300861,92.64783555976882L378.79021295876754,103.10240688204374L381.6735576196949,103.4108357095875L384.4601457483764,99.5644156588875L387.33962014801386,99.18060736164375L390.2190945476514,101.23604347749375L392.91279640537687,93.97045060938751L395.78840054372455,90.75721579708124L398.574988672406,89.25603181143751L401.4544630720435,87.49914720675L404.241051200725,78.6509114299875L407.12052560036244,77.26763479593751L410,83.42029125005624" data-legend="javascript" style="stroke: rgb(44, 160, 44); fill: none;"></path><path class="line" d="M2.879474399637517,299.1911711841375L5.666062528318985,300L8.549407189246338,299.8507640878875L11.335995317927805,299.843306033775L14.215469717565323,299.0465899701375L17.09494411720284,299.03173054854375L19.695759703972207,299.6300133195375L22.571363842319894,298.93541518809377L25.35795197100136,299.8532921247375L28.237426370638875,299.665441438875L31.02401449932034,297.02334630350623L33.90348889895786,297.28344636253127L36.782963298595384,292.09320091674374L39.56955142727685,296.20139871785625L42.4528960882042,295.37983642655627L45.239484216885664,295.9956218799375L48.11895861652318,296.0500661123813L50.9984330161607,294.85874182456877L53.59924860293007,294.9778398689813L56.47485274127775,293.96596805986877L59.261440869959216,294.9534311827125L62.14091526959674,293.9754142749L64.9275033982782,292.74385605135L67.80697779791572,291.6194168930625L70.68645219755324,292.7273026099688L73.47304032623471,293.6767208774625L76.35638498716206,293.450963412L79.14297311584353,293.9572072723125L82.02244751548103,294.1111809045375L84.90192191511856,292.6847442841125L87.50273750188794,292.12647395394373L90.37834164023562,290.63434597828126L93.16492976891708,291.994710634725L96.0444041685546,291.5770409866875L98.83099229723607,291.5243689948875L101.71046669687358,289.73054060116874L104.5899410965111,288.73630688289376L107.37652922519256,288.49840965665624L110.25987388611992,289.54179148366876L113.04646201480139,288.8882990531625L115.92593641443891,288.85294066965L118.80541081407641,287.67524497914377L121.49911267180184,287.5155412085625L124.37471681014954,287.72673271940624L127.16130493883098,287.76472516258127L130.0407793384685,286.00971372103123L132.82736746714997,285.164881742925L135.7068418667875,285.5001773678625L138.58631626642503,284.92353672969375L141.37290439510647,284.10591370490624L144.25624905603382,282.88925048308124L147.0428371847153,283.09909268814374L149.92231158435283,281.9634637789125L152.80178598399033,279.5972816017125L155.4026015707597,279.968272281525L158.2782057091074,279.8329411352625L161.06479383778884,279.8889856988437L163.94426823742637,278.9195363799L166.73085636610784,279.01234218583124L169.61033076574535,278.7793225836937L172.48980516538288,280.5752823768L175.27639329406435,278.63841682303126L178.1597379549917,276.7305688036125L180.94632608367314,278.3660377358625L183.8258004833107,276.6228768507375L186.7052748829482,273.879020298825L189.30609046971756,274.56292320039375L192.18169460806524,273.6091590837L194.96828273674672,272.4623634614438L197.84775713638422,272.3362730838L200.63434526506572,272.057497816725L203.51381966470322,271.53296038891875L206.39329406434075,273.1635445169625L209.1798821930222,269.7734471637L212.06322685394954,269.48639939514374L214.84981498263105,271.4437609785375L217.72928938226852,269.4458673577125L220.60876378190605,266.7333488131313L223.2095793686754,264.631979896425L226.0851835070231,266.9703496207875L228.87177163570456,265.22638135575L231.7512460353421,265.5696858342375L234.53783416402354,261.61976711949376L237.4173085636611,263.7260732463L240.29678296329863,264.6645852623063L243.08337109198007,262.73797595191877L245.9667157529074,262.53444379955624L248.7533038815889,265.24806594136874L251.6327782812264,263.1794284510125L254.51225268086392,263.9263401074625L257.20595453858937,262.1247999681L260.081558676937,260.36957732660625L262.8681468056185,262.1352883717125L265.747621205256,260.41311963853127L268.5342093339375,259.991810690475L271.413683733575,260.63608213730623L274.2931581332125,263.65281005705623L277.07974626189394,259.1927851983L279.9630909228213,261.5801207830875L282.7496790515028,263.32359019231876L285.62915345114027,262.61173749309376L288.5086278507778,260.2765656531L291.1094434375472,256.8230996417062L293.98504757589484,254.90395292341876L296.77163570457634,256.1696460377625L299.65111010421384,252.75538849100624L302.43769823289534,251.7870647881125L305.31717263253285,251.2565544559125L308.1966470321704,250.72407968604375L310.98323516085185,249.4926322146L313.8665798217792,249.40100319307498L316.65316795046067,251.64473684210625L319.5326423500982,250.44903598569374L322.4121167497357,244.30448852874375L325.01293233650506,244.18212429800624L327.88853647485274,244.8758486004L330.67512460353424,246.6360290801625L333.5545990031717,244.81980510999375L336.3411871318532,247.6906165305375L339.2206615314907,250.6801640021625L342.10013593112825,250.23072311833124L344.8867240598097,248.41335731025L347.770068720737,246.2168536461L350.5566568494185,250.96651492237498L353.436131249056,249.62818399005L356.3156056486936,244.6686294291L358.91642123546296,246.8041150312875L361.7920253738106,242.92005863415L364.5786135024921,245.82816305135626L367.4580879021296,244.66618956626252L370.24467603081104,246.96202741726876L373.1241504304486,245.2401281074125L376.0036248300861,245.24252294285625L378.79021295876754,245.6392422439875L381.6735576196949,247.31358446566875L384.4601457483764,248.21123722895624L387.33962014801386,248.73051218341874L390.2190945476514,242.52087191655L392.91279640537687,241.9829663414625L395.78840054372455,240.1323918198375L398.574988672406,242.71290458364376L401.4544630720435,243.04863845465624L404.241051200725,246.73300850398124L407.12052560036244,245.85117848938125L410,241.6431224450625" data-legend="r" style="stroke: rgb(214, 39, 40); fill: none;"></path><path class="line" d="M2.879474399637517,298.5171471709125L5.666062528318985,297.2735770668937L8.549407189246338,298.358404966575L11.335995317927805,297.962978438925L14.215469717565323,297.7356511790625L17.09494411720284,297.09519164563125L19.695759703972207,297.8725765872563L22.571363842319894,297.16110716821873L25.35795197100136,296.91913461915L28.237426370638875,297.0558846620625L31.02401449932034,297.7237354085625L33.90348889895786,298.03483353885L36.782963298595384,297.077922077925L39.56955142727685,296.3575056198562L42.4528960882042,294.24937087134373L45.239484216885664,294.94447262341873L48.11895861652318,296.13410725891873L50.9984330161607,295.3222978895625L53.59924860293007,295.5559302437625L56.47485274127775,292.9854378696L59.261440869959216,292.4846061498L62.14091526959674,295.058485865925L64.9275033982782,295.317616511775L67.80697779791572,295.85412849834375L70.68645219755324,294.91527512985L73.47304032623471,295.213218608175L76.35638498716206,295.77830699285624L79.14297311584353,295.14950718271876L82.02244751548103,295.83071608040626L84.90192191511856,293.434444404075L87.50273750188794,291.9772127966625L90.37834164023562,292.48386589014376L93.16492976891708,294.3194316682125L96.0444041685546,294.0811639365937L98.83099229723607,294.6980634241125L101.71046669687358,295.53120794079376L104.5899410965111,295.08593780675625L107.37652922519256,292.5730471374L110.25987388611992,292.5569257346625L113.04646201480139,292.97827366876874L115.92593641443891,292.6170925884563L118.80541081407641,291.5864218492313L121.49911267180184,291.92512507865627L124.37471681014954,290.95883869365L127.16130493883098,292.4716745007375L130.0407793384685,292.57394455213125L132.82736746714997,292.63542343666876L135.7068418667875,292.0716566158313L138.58631626642503,292.1488606365937L141.37290439510647,290.52129924740626L144.25624905603382,289.30895962576875L147.0428371847153,290.64612613415625L149.92231158435283,291.3696785652937L152.80178598399033,290.0441608778625L155.4026015707597,289.2378136717688L158.2782057091074,288.52601645480627L161.06479383778884,288.53052517726877L163.94426823742637,289.32349762693127L166.73085636610784,289.453118368425L169.61033076574535,289.9405615362937L172.48980516538288,289.8860235555375L175.27639329406435,288.744753652125L178.1597379549917,287.18110294201875L180.94632608367314,288L183.8258004833107,288.93132395649377L186.7052748829482,287.6620477413L189.30609046971756,287.15080711434376L192.18169460806524,286.3814027924625L194.96828273674672,286.6503480672375L197.84775713638422,288.12439010919377L200.63434526506572,288.24196410965624L203.51381966470322,289.4078794689375L206.39329406434075,287.8897675677375L209.1798821930222,286.6370241494625L212.06322685394954,286.13836432700623L214.84981498263105,287.82710385609374L217.72928938226852,288.5196010486125L220.60876378190605,286.7045028310313L223.2095793686754,286.28041537545L226.0851835070231,284.857694035575L228.87177163570456,285.87986472763123L231.7512460353421,287.7621163727438L234.53783416402354,289.1511104950313L237.4173085636611,289.3678081434L240.29678296329863,290.07051557101875L243.08337109198007,289.3133040274125L245.9667157529074,288.145416227625L248.7533038815889,290.4715959694875L251.6327782812264,290.3191324168125L254.51225268086392,289.26593536753126L257.20595453858937,288.4374080850375L260.081558676937,289.26835749658125L262.8681468056185,288.69234689544373L265.747621205256,289.8807380001375L268.5342093339375,290.4564687015L271.413683733575,290.29923501748124L274.2931581332125,290.70136981479374L277.07974626189394,290.341933594425L279.9630909228213,291.62864662044376L282.7496790515028,291.470872973025L285.62915345114027,291.55025267345627L288.5086278507778,290.8587592059375L291.1094434375472,289.92726391381876L293.98504757589484,289.981004774175L296.77163570457634,289.96081479324374L299.65111010421384,291.53812046724374L302.43769823289534,292.3321475589L305.31717263253285,292.33894765516874L308.1966470321704,293.26997118586877L310.98323516085185,292.3073393680875L313.8665798217792,291.63385240434377L316.65316795046067,293.5076177285438L319.5326423500982,293.22913395718126L322.4121167497357,293.3895495685125L325.01293233650506,293.85020273578124L327.88853647485274,292.9670789547188L330.67512460353424,294.03559251710624L333.5545990031717,294.403606510275L336.3411871318532,294.5155696226625L339.2206615314907,295.1848202650875L342.10013593112825,294.36697522689377L344.8867240598097,293.90264915600625L347.770068720737,293.7095735258625L350.5566568494185,294.01509336455626L353.436131249056,294.83916013325626L356.3156056486936,295.316135142375L358.91642123546296,294.65585415901876L361.7920253738106,293.97544041045L364.5786135024921,294.25186296045L367.4580879021296,294.95078979793124L370.24467603081104,295.2077870349L373.1241504304486,295.616461948875L376.0036248300861,295.8323246550375L378.79021295876754,294.4861352612813L381.6735576196949,294.81577792914374L384.4601457483764,295.7361929211938L387.33962014801386,295.79703613215L390.2190945476514,295.52903134190626L392.91279640537687,296.1879995267063L395.78840054372455,295.571040510225L398.574988672406,296.04540203120627L401.4544630720435,296.3725829402438L404.241051200725,296.2108166149313L407.12052560036244,296.89423376919376L410,296.8045442706937" data-legend="matlab" style="stroke: rgb(148, 103, 189); fill: none;"></path></g></g><g transform="translate(20, 150)"><text transform="rotate(-90)" x="-50" y="0" dy="1em" class="axis-label y-axis-label" style="text-anchor: middle; font-weight: bold;">% of Stack Overflow questions that month</text></g><g class="legend" transform="translate(530, 30)" style="font-size: 12px;"><text class="legend-title" style="font-weight: bold;">Tag</text><g class="legend-items" transform="translate(0,20)"><text y="0em" x="1em">python</text><text y="1em" x="1em">javascript</text><text y="2em" x="1em">java</text><text y="3em" x="1em">r</text><text y="4em" x="1em">matlab</text><circle cy="-0.25em" cx="0" r="0.4em" style="fill: rgb(31, 119, 180);"></circle><circle cy="0.75em" cx="0" r="0.4em" style="fill: rgb(44, 160, 44);"></circle><circle cy="1.75em" cx="0" r="0.4em" style="fill: rgb(255, 127, 14);"></circle><circle cy="2.75em" cx="0" r="0.4em" style="fill: rgb(214, 39, 40);"></circle><circle cy="3.75em" cx="0" r="0.4em" style="fill: rgb(148, 103, 189);"></circle></g><rect class="legend-box"></rect></g></svg>
        